<svg width="12" height="11" viewBox="0 0 12 11" fill="none" xmlns="http://www.w3.org/2000/svg">
<path d="M10.4324 4.71484L10.9527 5.23516C11.173 5.45547 11.173 5.81172 10.9527 6.02969L6.39883 10.5859C6.17852 10.8062 5.82227 10.8062 5.6043 10.5859L1.04805 6.02969C0.827734 5.80937 0.827734 5.45312 1.04805 5.23516L1.56836 4.71484C1.79102 4.49219 2.1543 4.49687 2.37227 4.72422L5.06289 7.54844V0.8125C5.06289 0.500781 5.31367 0.25 5.62539 0.25H6.37539C6.68711 0.25 6.93789 0.500781 6.93789 0.8125V7.54844L9.62852 4.72422C9.84648 4.49453 10.2098 4.48984 10.4324 4.71484V4.71484Z" fill="#FFF"/>
</svg>
