<svg width="17" height="14" viewBox="0 0 17 14" fill="none" xmlns="http://www.w3.org/2000/svg">
<path d="M15.9504 1.14885C15.7525 0.957268 15.5178 0.805654 15.2597 0.702694C15.0016 0.599735 14.7252 0.547458 14.4464 0.548855H6.72116C6.18435 0.555517 5.66948 0.757471 5.27743 1.11512C4.88538 1.47277 4.64444 1.96031 4.60188 2.48218H2.61929C2.0581 2.48498 1.52072 2.70362 1.12389 3.09059C0.727069 3.47756 0.502874 4.0016 0.5 4.54885V9.08217C0.50143 9.53743 0.656042 9.97964 0.940089 10.3409C1.22414 10.7022 1.62191 10.9626 2.07238 11.0822V13.0155C2.07357 13.118 2.10698 13.2177 2.1681 13.3012C2.22922 13.3846 2.31512 13.4478 2.4142 13.4822C2.48257 13.4822 2.55092 13.5488 2.61929 13.5488C2.74605 13.5463 2.86754 13.4989 2.96111 13.4155L5.21718 11.2155H10.3445C10.7821 11.2079 11.2068 11.0696 11.5613 10.8193C11.9159 10.5689 12.1831 10.2186 12.3271 9.8155L14.0362 11.4822C14.1298 11.5656 14.2513 11.613 14.378 11.6155C14.4151 11.62 14.4528 11.6163 14.4883 11.6048C14.5238 11.5933 14.5562 11.5742 14.5831 11.5488C14.6822 11.5145 14.7681 11.4513 14.8292 11.3679C14.8903 11.2844 14.9237 11.1847 14.9249 11.0822V9.14883C15.2899 9.06457 15.6223 8.87939 15.882 8.61551C16.0785 8.42253 16.234 8.19365 16.3396 7.94197C16.4452 7.69029 16.4988 7.42076 16.4973 7.14884V7.14884V2.61552C16.5113 2.34782 16.4701 2.08009 16.3762 1.82818C16.2822 1.57627 16.1374 1.34526 15.9504 1.14885V1.14885ZM7.4732 8.28218H3.37132C3.29922 8.28316 3.22762 8.27004 3.16081 8.24358C3.094 8.21713 3.03334 8.17789 2.98235 8.12817C2.93136 8.07844 2.8911 8.01926 2.86397 7.9541C2.83684 7.88895 2.8234 7.81915 2.82441 7.74884C2.81769 7.67716 2.82718 7.60492 2.85229 7.53723C2.87739 7.46955 2.91747 7.40808 2.96966 7.35718C3.02186 7.30629 3.08489 7.26721 3.1543 7.24273C3.22371 7.21825 3.29782 7.20895 3.37132 7.21551H7.4732C7.61825 7.21551 7.75735 7.2717 7.85992 7.37172C7.96249 7.47174 8.02011 7.60739 8.02011 7.74884C8.02011 7.89029 7.96249 8.02595 7.85992 8.12597C7.75735 8.22599 7.61825 8.28218 7.4732 8.28218V8.28218ZM9.3874 6.34884H3.37132C3.29922 6.34983 3.22762 6.33671 3.16081 6.31026C3.094 6.2838 3.03334 6.24455 2.98235 6.19483C2.93136 6.14511 2.8911 6.08592 2.86397 6.02077C2.83684 5.95562 2.8234 5.88582 2.82441 5.81551C2.81769 5.74383 2.82718 5.67158 2.85229 5.6039C2.87739 5.53621 2.91747 5.47475 2.96966 5.42386C3.02186 5.37296 3.08489 5.33388 3.1543 5.30939C3.22371 5.28491 3.29782 5.27562 3.37132 5.28218H9.3874C9.53245 5.28218 9.67155 5.33837 9.77412 5.43839C9.87669 5.53841 9.93431 5.67406 9.93431 5.81551C9.93431 5.95696 9.87669 6.09261 9.77412 6.19263C9.67155 6.29265 9.53245 6.34884 9.3874 6.34884V6.34884ZM15.5402 7.14884C15.5209 7.42552 15.3994 7.68601 15.1984 7.88211C14.9973 8.07821 14.7301 8.19665 14.4464 8.21551V8.21551C14.3831 8.21405 14.3202 8.22512 14.2615 8.24806C14.2028 8.27099 14.1494 8.30531 14.1047 8.34894C14.0599 8.39257 14.0247 8.44459 14.0012 8.50187C13.9777 8.55915 13.9663 8.62049 13.9678 8.68217V9.88217L12.5322 8.48217V4.54885C12.5293 4.0016 12.3051 3.47756 11.9083 3.09059C11.5114 2.70362 10.9741 2.48498 10.4129 2.48218H5.62735C5.65267 2.2197 5.78019 1.97667 5.98365 1.80306C6.18711 1.62946 6.45102 1.53849 6.72116 1.54885H14.4464C14.7301 1.56771 14.9973 1.68615 15.1984 1.88225C15.3994 2.07835 15.5209 2.33884 15.5402 2.61552V7.14884Z" fill="#3051E9"/>
</svg>
