<svg width="26" height="26" viewBox="0 0 26 26" fill="none" xmlns="http://www.w3.org/2000/svg">
<path d="M13.6195 1.80743C13.4026 1.71938 13.1704 1.67534 12.9364 1.67784C12.4676 1.67898 11.9946 1.82808 11.6637 2.23254C11.3578 2.6065 11.2838 3.06846 11.2838 3.45678V13.4035L9.40812 11.4584L9.39642 11.4472C9.0655 11.1303 8.62362 10.9556 8.16546 10.9606C7.7073 10.9656 7.26931 11.1498 6.94532 11.4738C6.62134 11.7978 6.43713 12.2357 6.43217 12.6939C6.4272 13.1521 6.60174 13.5941 6.91863 13.925L11.5088 18.5152C11.6908 18.7122 11.9124 18.8688 12.1592 18.9745C12.4064 19.0805 12.6731 19.133 12.9419 19.1287C13.2107 19.133 13.4774 19.0805 13.7246 18.9745C13.9695 18.8696 14.1897 18.7146 14.3709 18.5196L19.0761 13.935L19.0858 13.9249C19.4027 13.5939 19.5774 13.1521 19.5724 12.6939C19.5675 12.2357 19.3833 11.7977 19.0593 11.4738C18.7353 11.1498 18.2973 10.9656 17.8392 10.9606C17.381 10.9556 16.939 11.1302 16.6081 11.4471L14.7209 13.3343V3.46164C14.7233 3.22784 14.6792 2.99586 14.5912 2.77918C14.5025 2.56047 14.3707 2.36179 14.2038 2.19489C14.0369 2.02798 13.8382 1.89623 13.6195 1.80743Z" fill="#728BF1"/>
<path d="M2.74699 13.5259C2.54398 13.4434 2.32754 13.3996 2.10876 13.3963C1.8904 13.3788 1.67057 13.4069 1.46335 13.4791C1.23924 13.5573 1.03568 13.685 0.867849 13.8529C0.70002 14.0207 0.572268 14.2243 0.494124 14.4484C0.422002 14.6552 0.393855 14.8746 0.411239 15.0926V18.6786L0.411243 18.681C0.415708 20.1761 1.0116 21.6086 2.06878 22.6658C3.12595 23.723 4.55851 24.3189 6.05357 24.3233L6.056 24.3234H19.9488L19.9512 24.3233C21.4462 24.3189 22.8788 23.723 23.936 22.6658C24.9932 21.6086 25.589 20.1761 25.5935 18.681L25.5935 18.6786V15.0624C25.5972 14.8445 25.5574 14.628 25.4763 14.4256C25.3939 14.2198 25.2705 14.0328 25.1138 13.876C24.957 13.7192 24.77 13.5959 24.5641 13.5134C24.3631 13.4329 24.1481 13.3931 23.9317 13.3962C23.7008 13.3949 23.4718 13.4389 23.2578 13.5259C23.0391 13.6146 22.8404 13.7464 22.6735 13.9133C22.5066 14.0802 22.3748 14.2789 22.286 14.4976C22.1981 14.7142 22.154 14.9462 22.1564 15.18L22.1564 18.7994L22.1565 18.8073C22.1593 19.097 22.1043 19.3843 21.9948 19.6525C21.8852 19.9206 21.7233 20.1642 21.5184 20.3691C21.3136 20.5739 21.07 20.7358 20.8018 20.8454C20.5337 20.9549 20.2463 21.0099 19.9567 21.0071L6.056 21.007L6.04809 21.0071C5.75842 21.0099 5.4711 20.9549 5.20294 20.8454C4.93477 20.7358 4.69115 20.5739 4.48631 20.3691C4.28148 20.1642 4.11955 19.9206 4.01 19.6525C3.90045 19.3843 3.84552 19.097 3.84834 18.8073V15.18C3.85075 14.9462 3.8067 14.7143 3.71873 14.4976C3.62994 14.2789 3.49819 14.0802 3.33128 13.9133C3.16437 13.7464 2.9657 13.6146 2.74699 13.5259Z" fill="#728BF1"/>
</svg>
