<svg width="28" height="28" viewBox="0 0 28 28" fill="none" xmlns="http://www.w3.org/2000/svg">
<path d="M13.9993 0.666016C6.63935 0.666016 0.666016 6.63935 0.666016 13.9993C0.666016 21.3593 6.63935 27.3327 13.9993 27.3327H20.666V24.666H13.9993C8.21268 24.666 3.33268 19.786 3.33268 13.9993C3.33268 8.21268 8.21268 3.33268 13.9993 3.33268C19.786 3.33268 24.666 8.21268 24.666 13.9993V15.906C24.666 16.9593 23.7193 17.9993 22.666 17.9993C21.6127 17.9993 20.666 16.9593 20.666 15.906V13.9993C20.666 10.3193 17.6793 7.33268 13.9993 7.33268C10.3193 7.33268 7.33268 10.3193 7.33268 13.9993C7.33268 17.6793 10.3193 20.666 13.9993 20.666C15.8393 20.666 17.5193 19.9193 18.7193 18.706C19.586 19.8927 21.0793 20.666 22.666 20.666C25.2927 20.666 27.3327 18.5327 27.3327 15.906V13.9993C27.3327 6.63935 21.3593 0.666016 13.9993 0.666016ZM13.9993 17.9993C11.786 17.9993 9.99935 16.2127 9.99935 13.9993C9.99935 11.786 11.786 9.99935 13.9993 9.99935C16.2127 9.99935 17.9993 11.786 17.9993 13.9993C17.9993 16.2127 16.2127 17.9993 13.9993 17.9993Z" fill="#728BF1"/>
</svg>
