<svg width="30" height="30" viewBox="0 0 30 30" fill="none" xmlns="http://www.w3.org/2000/svg">
<path d="M6.75 18.25V27C6.75 27.3315 6.8817 27.6495 7.11612 27.8839C7.35054 28.1183 7.66848 28.25 8 28.25H23C23.3315 28.25 23.6495 28.1183 23.8839 27.8839C24.1183 27.6495 24.25 27.3315 24.25 27V7C24.25 6.66848 24.1183 6.35054 23.8839 6.11612C23.6495 5.8817 23.3315 5.75 23 5.75H8C7.66848 5.75 7.35054 5.8817 7.11612 6.11612C6.8817 6.35054 6.75 6.66848 6.75 7V10.75" stroke="#0951BE" stroke-width="2" stroke-linecap="round" stroke-linejoin="round"/>
<path d="M19.2487 23.2487H15.4987M2.11123 11.6112L3.86123 9.86123C4.09489 9.63219 4.40904 9.50391 4.73623 9.50391C5.06342 9.50391 5.37757 9.63219 5.61123 9.86123L11.7487 15.9987V19.4987H8.24873L2.11123 13.3612C1.88219 13.1276 1.75391 12.8134 1.75391 12.4862C1.75391 12.159 1.88219 11.8449 2.11123 11.6112Z" stroke="#0951BE" stroke-width="2" stroke-linecap="round" stroke-linejoin="round"/>
</svg>
