<svg width="25" height="25" viewBox="0 0 25 25" fill="none" xmlns="http://www.w3.org/2000/svg">
<path d="M1 8.66667V22.7222C1 23.0611 1.13462 23.3861 1.37425 23.6257C1.61388 23.8654 1.93889 24 2.27778 24H22.7222C23.0611 24 23.3861 23.8654 23.6257 23.6257C23.8654 23.3861 24 23.0611 24 22.7222V8.66667M1 8.66667H24M1 8.66667V3.55556C1 3.21667 1.13462 2.89166 1.37425 2.65203C1.61388 2.4124 1.93889 2.27778 2.27778 2.27778H22.7222C23.0611 2.27778 23.3861 2.4124 23.6257 2.65203C23.8654 2.89166 24 3.21667 24 3.55556V8.66667M17.6111 1V4.83333M7.38889 1V4.83333M15.0556 16.3333H9.94444M15.0556 16.3333L12.5 18.8889M15.0556 16.3333L12.5 13.7778" stroke="#223EE2" stroke-width="2" stroke-linecap="round" stroke-linejoin="round"/>
</svg>
