<svg width="16" height="16" viewBox="0 0 16 16" fill="none" xmlns="http://www.w3.org/2000/svg">
<path fill-rule="evenodd" clip-rule="evenodd" d="M8.02492 1.25C4.28542 1.25 1.25322 4.27352 1.25322 8C1.25322 11.7288 4.28521 14.75 8.02492 14.75C11.7646 14.75 14.7966 11.7288 14.7966 8C14.7966 4.27352 11.7644 1.25 8.02492 1.25ZM0.25 8C0.25 3.72134 3.73125 0.25 8.02492 0.25C12.3186 0.25 15.7998 3.72134 15.7998 8C15.7998 12.2812 12.3186 15.75 8.02492 15.75C3.73125 15.75 0.25 12.2812 0.25 8Z" fill="#555A64"/>
<path d="M9.78055 11.625C9.78055 11.8321 9.6121 12 9.40434 12H6.6455C6.43774 12 6.26929 11.8321 6.26929 11.625V10.875C6.26929 10.6679 6.43774 10.5 6.6455 10.5H7.0217V8.5H6.6455C6.43774 8.5 6.26929 8.33209 6.26929 8.125V7.375C6.26929 7.16791 6.43774 7 6.6455 7H8.65193C8.85969 7 9.02814 7.16791 9.02814 7.375V10.5H9.40434C9.6121 10.5 9.78055 10.6679 9.78055 10.875V11.625Z" fill="#555A64"/>
<path d="M8.02492 3.6875C8.75213 3.6875 9.34164 4.27513 9.34164 5C9.34164 5.72487 8.75213 6.3125 8.02492 6.3125C7.29771 6.3125 6.7082 5.72487 6.7082 5C6.7082 4.27513 7.29771 3.6875 8.02492 3.6875Z" fill="#555A64"/>
</svg>
