<svg xmlns="http://www.w3.org/2000/svg" xmlns:xlink="http://www.w3.org/1999/xlink" id="Layer_1" x="0px" y="0px" width="218.8px" height="64.6px" viewBox="0 0 218.8 64.6" style="enable-background:new 0 0 218.8 64.6;" xml:space="preserve"><path style="fill:#3559EB;" d="M131.7,36.6V18.1c0-9.4-5.5-13.9-12.8-13.9c-5.2,0-9.4,2.4-11.4,7.1c-2-4.7-6.3-7.1-11.4-7.1  c-7.3,0-12.8,4.5-12.8,13.9v18.5h4.3V18.1c0-6.7,3.7-10,8.8-10c5.1,0,8.9,3.4,8.9,10v18.5h4.3V18.1c0-6.6,3.8-10,8.9-10  s8.8,3.3,8.8,10v18.5H131.7z"></path><path style="fill:#3559EB;" d="M153.7,33.5c-7.5,0-12.7-5.4-12.7-12.7s5.1-12.7,12.7-12.7s12.7,5.4,12.7,12.7S161.3,33.5,153.7,33.5   M166.6,29.1v7.5h0.1l0,0h4V21c0-0.4,0-0.7,0-1.1V5.1h-4v4.5c-3.3-3.6-8-5.5-12.9-5.4c-10,0-17,7-17,16.8c0,10.1,7.5,16.4,16.4,16.4  C159.1,37.4,164.3,34.5,166.6,29.1"></path><rect x="178.1" y="5" style="fill:#3559EB;" width="4.3" height="31.6"></rect><path style="fill:#3559EB;" d="M202.4,18.7c-4.5-0.6-8.6-1-8.6-4.9c0-3.3,2.9-5.7,7.7-5.7s7.7,2.4,7.9,5.6h4.2  c-0.1-5.4-4.7-9.5-12.1-9.5s-12.1,4-12.1,10c0,7,6.5,7.9,12.1,8.6c4.5,0.6,8.6,1,8.6,4.9c0,3.4-3.1,5.9-8.6,5.9  c-5.3,0-8.4-2.4-8.6-5.8h-4.3c0.2,5.6,5.1,9.7,12.9,9.7c7.9,0,12.9-4.2,12.9-10.2C214.6,20.1,207.3,19.4,202.4,18.7"></path><path style="fill:#3559EB;" d="M20.9,32.3c-6.4,0-11.6-5.2-11.6-11.6c0-6.4,5.2-11.6,11.6-11.6s11.6,5.2,11.6,11.6c0,0,0,0,0,0  C32.4,27.2,27.3,32.3,20.9,32.3 M20.9,4.2c-4.3,0-8.5,1.7-11.6,4.7V4.2H4.2l0.1,16.1h0c0,0.2,0,0.3,0,0.5L4.2,59.1h5.1V32.7  c6.6,6.4,17.1,6.2,23.4-0.3S39,15.3,32.4,8.9C29.4,5.9,25.2,4.2,20.9,4.2"></path><path style="fill:#3559EB;" d="M60.3,32.3c-0.4,0-0.7,0.1-1.1,0.1c-0.4,0-0.7,0-1.1-0.1c-6.3-0.6-11-6.2-10.4-12.6  c0.6-6.3,6.2-11,12.6-10.4s11,6.2,10.4,12.6C70.1,27.4,65.8,31.8,60.3,32.3 M75.8,4.2H59.2c-9.2,0-16.6,7.4-16.6,16.6  S50,37.4,59.2,37.4c2.8,0,5.5-0.7,7.9-2c4.7,4.4,4.9,11.7,0.5,16.3c-4.4,4.7-11.7,4.9-16.3,0.5c-2.3-2.2-3.7-5.2-3.7-8.4h-5  c0,9.2,7.4,16.6,16.6,16.6c9.2,0,16.6-7.4,16.6-16.6c0-4.3-1.7-8.4-4.6-11.5c3-3.1,4.7-7.2,4.6-11.5c0-4.3-1.7-8.4-4.7-11.5h4.7  L75.8,4.2z"></path></svg>