<?xml version="1.0" encoding="UTF-8"?>
<!-- Generator: Adobe Illustrator 26.2.1, SVG Export Plug-In . SVG Version: 6.00 Build 0)  -->
<svg xmlns="http://www.w3.org/2000/svg" xmlns:xlink="http://www.w3.org/1999/xlink" version="1.1" id="Layer_1" x="0px" y="0px" width="106.5px" height="106.5px" viewBox="0 0 106.5 106.5" style="enable-background:new 0 0 106.5 106.5;" xml:space="preserve">
<style type="text/css">
	.st0{fill:#4961AC;}
	.st1{fill:#FFFFFF;}
</style>
<g>
	<circle class="st0" cx="53.2" cy="53.2" r="53.2"></circle>
	<g>
		<path class="st1" d="M53.2,101.4c-26.6,0-48.2-21.6-48.2-48.2S26.7,5.1,53.2,5.1s48.2,21.6,48.2,48.2S79.8,101.4,53.2,101.4     M53.2,9.6C29.2,9.6,9.6,29.2,9.6,53.2s19.6,43.7,43.7,43.7s43.7-19.6,43.7-43.7l0,0C96.9,29.2,77.3,9.6,53.2,9.6"></path>
		<path id="Path_18036" class="st1" d="M65.1,48.6c-3.8,0-6.9-3.1-6.9-6.9V28.6h-9.3v20H29v9.3h13.1c3.8,0,6.9,3.1,6.9,6.9v13.1h9.3    v-20h20v-9.3L65.1,48.6z"></path>
	</g>
</g>
</svg>
