<svg width="105" height="34" viewBox="0 0 105 34" fill="none" xmlns="http://www.w3.org/2000/svg">
<path fill-rule="evenodd" clip-rule="evenodd" d="M21.6831 0H31.6338V9.90434H21.6831V0ZM23.4654 8.13043H29.9999V1.6261H23.4654V8.13043ZM24.9506 6.50434H28.3663V3.10436H24.9506V6.50434ZM5.3465 5.32175H10.693C15.1485 5.17392 18.8615 8.57392 19.01 13.0087C19.1585 17.4435 15.7425 21.1391 11.2871 21.2869C10.9901 21.2869 10.8416 21.2869 10.5445 21.2869H5.19802V27.4957H0V9.31305H5.19802V5.32175H5.3465ZM5.3465 9.16521V17.2956H9.80195C12.0297 17.1478 13.8118 15.3739 13.6633 13.0087C13.5148 10.9391 11.8812 9.16521 9.80195 9.16521H5.3465ZM21.6831 13.1565H26.8812V27.3478H21.6831V13.1565ZM54.5049 5.32175H59.8516C64.307 5.17392 68.0199 8.57392 68.1684 13.0087C68.3169 17.4435 64.901 21.1391 60.4455 21.2869C60.1485 21.2869 60 21.2869 59.7029 21.2869H54.3564V27.4957H49.1584V9.31305H54.3564V5.32175H54.5049ZM54.5049 9.16521V17.2956H58.9604C61.1881 17.4435 63.1188 15.6696 63.2673 13.4522C63.4158 11.2348 61.6337 9.31304 59.406 9.16521C59.2575 9.16521 59.2575 9.16521 59.109 9.16521H54.5049ZM39.0595 10.2C41.8813 10.2 44.5544 11.5304 46.3366 13.7478L43.515 16.5565C42.7724 15.0783 41.2871 14.1913 39.5049 14.0435C36.9802 14.1913 34.901 16.2609 34.901 18.9217C34.7525 21.4348 36.8317 23.6522 39.5049 23.8C41.1386 23.8 42.7724 22.7652 43.515 21.2869L46.3366 24.0957C44.5544 26.313 42.0298 27.6435 39.0595 27.6435C34.1585 27.6435 30.1486 23.8 30.1486 18.9217C30.1486 14.0435 34.1585 10.2 39.0595 10.2ZM90.5941 34H95.6437L105 10.4957H99.9506L95.6437 21.2869L91.3367 10.4957H86.2871L93.1188 27.6435L90.5941 34ZM85.0991 27.0522H80.3465V25.7217C74.703 29.4174 70.0991 27.0522 69.5051 23.3565C68.911 19.3652 71.2872 16.4087 80.7922 17.2956C80.7922 13.7478 75.4457 13.1565 71.7328 15.8174L70.099 12.4174C76.7822 8.86956 85.0991 9.90434 85.0991 15.8174V27.0522ZM80.9407 19.9565H76.9308C72.9209 19.9565 73.812 25.1304 77.6734 24.3913C79.6041 23.9478 80.7921 22.6174 80.9407 19.9565Z" fill="#11C76F"/>
</svg>
