<svg width="17" height="16" viewBox="0 0 17 16" fill="none" xmlns="http://www.w3.org/2000/svg">
<g clip-path="url(#clip0_2512_1457)">
<path d="M14.1036 2.325C12.6071 0.825 10.6143 0 8.49643 0C4.125 0 0.567857 3.55714 0.567857 7.92857C0.567857 9.325 0.932143 10.6893 1.625 11.8929L0.5 16L4.70357 14.8964C5.86071 15.5286 7.16429 15.8607 8.49286 15.8607H8.49643C12.8643 15.8607 16.5 12.3036 16.5 7.93214C16.5 5.81429 15.6 3.825 14.1036 2.325V2.325ZM8.49643 14.525C7.31071 14.525 6.15 14.2071 5.13929 13.6071L4.9 13.4643L2.40714 14.1179L3.07143 11.6857L2.91429 11.4357C2.25357 10.3857 1.90714 9.175 1.90714 7.92857C1.90714 4.29643 4.86429 1.33929 8.5 1.33929C10.2607 1.33929 11.9143 2.025 13.1571 3.27143C14.4 4.51786 15.1643 6.17143 15.1607 7.93214C15.1607 11.5679 12.1286 14.525 8.49643 14.525V14.525ZM12.1107 9.58929C11.9143 9.48929 10.9393 9.01071 10.7571 8.94643C10.575 8.87857 10.4429 8.84643 10.3107 9.04643C10.1786 9.24643 9.8 9.68929 9.68214 9.825C9.56786 9.95714 9.45 9.975 9.25357 9.875C8.08929 9.29286 7.325 8.83571 6.55714 7.51786C6.35357 7.16786 6.76071 7.19286 7.13929 6.43571C7.20357 6.30357 7.17143 6.18929 7.12143 6.08929C7.07143 5.98929 6.675 5.01429 6.51071 4.61786C6.35 4.23214 6.18571 4.28571 6.06429 4.27857C5.95 4.27143 5.81786 4.27143 5.68571 4.27143C5.55357 4.27143 5.33929 4.32143 5.15714 4.51786C4.975 4.71786 4.46429 5.19643 4.46429 6.17143C4.46429 7.14643 5.175 8.08929 5.27143 8.22143C5.37143 8.35357 6.66786 10.3536 8.65714 11.2143C9.91429 11.7571 10.4071 11.8036 11.0357 11.7107C11.4179 11.6536 12.2071 11.2321 12.3714 10.7679C12.5357 10.3036 12.5357 9.90714 12.4857 9.825C12.4393 9.73571 12.3071 9.68571 12.1107 9.58929Z" fill="#3051E9"/>
</g>
<defs>
<clipPath id="clip0_2512_1457">
<rect width="16" height="16" fill="white" transform="translate(0.5)"/>
</clipPath>
</defs>
</svg>
